<?xml version="1.0" standalone="no"?>
<!DOCTYPE svg PUBLIC "-//W3C//DTD SVG 20010904//EN"
 "http://www.w3.org/TR/2001/REC-SVG-20010904/DTD/svg10.dtd">
<svg version="1.0" xmlns="http://www.w3.org/2000/svg"
 width="700.000000pt" height="700.000000pt" viewBox="0 0 700.000000 700.000000"
 preserveAspectRatio="xMidYMid meet">
<metadata>
Created by potrace 1.14, written by Peter Selinger 2001-2017
</metadata>
<g transform="translate(0.000000,700.000000) scale(0.100000,-0.100000)"
fill="#000000" stroke="none">
<path d="M1630 6993 c-370 -64 -644 -315 -732 -670 l-21 -88 -1 -2022 -1
-2023 60 -1 c171 -2 368 0 372 5 3 3 6 897 6 1986 0 1102 4 2001 8 2027 30
158 154 292 314 339 55 16 153 17 1283 18 806 1 1226 -2 1230 -9 4 -5 8 -221
8 -480 1 -258 4 -481 8 -495 24 -102 29 -121 37 -126 5 -3 9 -12 9 -21 0 -33
93 -164 162 -228 100 -92 221 -149 363 -169 17 -2 238 -5 492 -5 l461 -1 0
-2095 c0 -1161 -5 -2116 -9 -2142 -22 -115 -107 -235 -209 -295 -106 -62 -98
-61 -847 -62 -470 0 -683 -3 -684 -10 -1 -12 -1 -406 0 -419 1 -10 1435 -4
1476 6 358 88 603 325 687 664 l21 88 1 2133 1 2132 -985 985 -984 985 -1251
-1 c-687 -1 -1261 -4 -1275 -6z"/>
<path d="M2 940 l3 -875 150 0 150 1 3 582 c1 320 6 582 10 582 4 0 48 -91 97
-202 49 -112 104 -237 122 -278 19 -41 38 -84 42 -95 5 -11 19 -42 31 -70 13
-27 45 -102 72 -165 27 -63 53 -119 58 -124 13 -13 220 -14 229 -1 5 5 85 186
179 400 222 509 234 535 243 535 4 0 8 -258 7 -574 0 -316 2 -578 5 -583 8
-13 297 -9 305 4 4 6 6 400 4 875 l-2 863 -175 0 -175 0 -36 -85 c-20 -47 -45
-105 -57 -130 -11 -25 -105 -238 -209 -475 -103 -236 -192 -433 -198 -439 -6
-6 -13 0 -19 15 -5 13 -68 159 -141 324 -73 165 -161 365 -195 445 -35 80 -83
190 -107 245 l-44 100 -177 0 -177 0 2 -875z"/>
<path d="M2028 1815 c0 0 -2 -392 -3 -872 l-1 -871 20 -4 c37 -6 709 -1 761 6
342 47 544 249 621 621 25 123 22 398 -7 522 -6 26 -13 59 -15 73 -9 45 -63
169 -97 223 -105 164 -272 263 -494 293 -33 5 -763 13 -785 9z m692 -289 c75
-10 171 -57 226 -111 56 -54 112 -183 131 -302 14 -85 8 -322 -11 -403 -33
-142 -101 -247 -197 -303 -71 -42 -151 -55 -334 -57 l-165 -1 0 589 c0 324 2
591 4 593 6 6 299 2 346 -5z"/>
</g>
</svg>
